<svg width="131" height="27" viewBox="0 0 131 27" fill="none" xmlns="http://www.w3.org/2000/svg">
<path d="M13.5265 7.09254C13.5265 8.18508 13.2906 9.18806 12.8186 10.1015C12.3467 10.997 11.6219 11.7224 10.6442 12.2776C9.66663 12.8328 8.45303 13.1104 7.00346 13.1104H4.32343V19.8806H0V1.0209H7.00346C8.41932 1.0209 9.61606 1.2806 10.5937 1.8C11.5713 2.3194 12.3045 3.03582 12.7933 3.94925C13.2821 4.86268 13.5265 5.91045 13.5265 7.09254ZM6.67478 9.45672C7.5007 9.45672 8.11592 9.25075 8.52045 8.83881C8.92499 8.42687 9.12725 7.84478 9.12725 7.09254C9.12725 6.3403 8.92499 5.75821 8.52045 5.34627C8.11592 4.93433 7.5007 4.72836 6.67478 4.72836H4.32343V9.45672H6.67478Z" fill="white"/>
<path d="M21.5166 20.0955C20.2862 20.0955 19.1906 19.8716 18.2298 19.4239C17.269 18.9761 16.5106 18.3672 15.9543 17.597C15.3981 16.809 15.0863 15.9313 15.0188 14.9642H19.2917C19.3423 15.4836 19.5698 15.9045 19.9744 16.2269C20.3789 16.5493 20.8761 16.7104 21.4661 16.7104C22.0054 16.7104 22.4184 16.603 22.7049 16.3881C23.0083 16.1552 23.16 15.8597 23.16 15.5015C23.16 15.0716 22.9494 14.7582 22.528 14.5612C22.1066 14.3463 21.4239 14.1134 20.48 13.8627C19.4687 13.6119 18.6259 13.3522 17.9517 13.0836C17.2775 12.797 16.696 12.3582 16.2072 11.7672C15.7183 11.1582 15.4739 10.3433 15.4739 9.32239C15.4739 8.46269 15.6931 7.68358 16.1313 6.98507C16.5864 6.26866 17.2438 5.70448 18.1034 5.29254C18.9799 4.8806 20.0165 4.67463 21.2132 4.67463C22.9831 4.67463 24.3736 5.1403 25.385 6.07164C26.4132 7.00298 27.0031 8.23881 27.1548 9.77911H23.16C23.0926 9.2597 22.8735 8.84776 22.5027 8.54328C22.1487 8.23881 21.6768 8.08657 21.0868 8.08657C20.5812 8.08657 20.1935 8.19403 19.9238 8.40895C19.6541 8.60597 19.5193 8.88358 19.5193 9.24179C19.5193 9.67164 19.73 9.99403 20.1513 10.209C20.5896 10.4239 21.2638 10.6388 22.174 10.8537C23.219 11.1403 24.0702 11.4269 24.7276 11.7134C25.385 11.9821 25.9581 12.4299 26.4469 13.0567C26.9525 13.6657 27.2138 14.4896 27.2306 15.5284C27.2306 16.406 26.9947 17.194 26.5227 17.8925C26.0676 18.5731 25.4018 19.1104 24.5253 19.5045C23.6657 19.8985 22.6628 20.0955 21.5166 20.0955Z" fill="white"/>
<path d="M44.2872 4.88955L35.438 27H30.7859L34.0222 19.3701L28.2829 4.88955H33.112L36.3735 14.2657L39.6098 4.88955H44.2872Z" fill="white"/>
<path d="M44.9909 12.3851C44.9909 10.8269 45.2859 9.46567 45.8759 8.30149C46.4827 7.13731 47.317 6.24179 48.3789 5.61493C49.4576 4.98806 50.6881 4.67463 52.0703 4.67463C53.8401 4.67463 55.3149 5.16716 56.4948 6.15224C57.6916 7.13731 58.4753 8.52537 58.8462 10.3164H54.2446C53.8569 9.17015 53.1069 8.59702 51.9944 8.59702C51.2022 8.59702 50.5701 8.92836 50.0982 9.59104C49.6262 10.2358 49.3902 11.1672 49.3902 12.3851C49.3902 13.603 49.6262 14.5433 50.0982 15.206C50.5701 15.8507 51.2022 16.1731 51.9944 16.1731C53.1069 16.1731 53.8569 15.6 54.2446 14.4537H58.8462C58.4753 16.209 57.6916 17.5881 56.4948 18.591C55.2981 19.594 53.8232 20.0955 52.0703 20.0955C50.6881 20.0955 49.4576 19.7821 48.3789 19.1552C47.317 18.5284 46.4827 17.6328 45.8759 16.4687C45.2859 15.3045 44.9909 13.9433 44.9909 12.3851Z" fill="white"/>
<path d="M69.8309 4.72836C71.4491 4.72836 72.7469 5.30149 73.7246 6.44776C74.7022 7.57612 75.191 9.13433 75.191 11.1224V19.8806H70.8928V11.7403C70.8928 10.7373 70.6484 9.95821 70.1596 9.40299C69.6708 8.84776 69.0134 8.57015 68.1875 8.57015C67.3616 8.57015 66.7042 8.84776 66.2154 9.40299C65.7266 9.95821 65.4822 10.7373 65.4822 11.7403V19.8806H61.1588V0H65.4822V6.90448C65.9205 6.24179 66.5188 5.71343 67.2773 5.3194C68.0358 4.92537 68.887 4.72836 69.8309 4.72836Z" fill="white"/>
<path d="M84.6173 20.0955C83.2351 20.0955 81.9878 19.7821 80.8754 19.1552C79.7798 18.5284 78.9117 17.6328 78.2712 16.4687C77.6475 15.3045 77.3357 13.9433 77.3357 12.3851C77.3357 10.8448 77.656 9.49254 78.2965 8.32836C78.937 7.14627 79.8135 6.24179 80.9259 5.61493C82.0384 4.98806 83.2857 4.67463 84.6679 4.67463C86.05 4.67463 87.2973 4.98806 88.4098 5.61493C89.5222 6.24179 90.3987 7.14627 91.0392 8.32836C91.6797 9.49254 92 10.8448 92 12.3851C92 13.9254 91.6713 15.2866 91.0139 16.4687C90.3734 17.6328 89.4885 18.5284 88.3592 19.1552C87.2467 19.7821 85.9994 20.0955 84.6173 20.0955ZM84.6173 16.1194C85.4432 16.1194 86.1427 15.797 86.7158 15.1522C87.3057 14.5075 87.6007 13.5851 87.6007 12.3851C87.6007 11.1851 87.3142 10.2627 86.7411 9.61791C86.1848 8.97313 85.4938 8.65075 84.6679 8.65075C83.8251 8.65075 83.1256 8.97313 82.5693 9.61791C82.0131 10.2448 81.735 11.1672 81.735 12.3851C81.735 13.5851 82.0047 14.5075 82.5441 15.1522C83.1003 15.797 83.7914 16.1194 84.6173 16.1194Z" fill="white"/>
<path d="M104.475 15.9H97.925L96.875 19H92.4L98.75 1.44995H103.7L110.05 19H105.525L104.475 15.9ZM103.375 12.6L101.2 6.17495L99.05 12.6H103.375Z" fill="url(#paint0_linear_103_63)"/>
<path d="M116.258 7.37495C116.758 6.60828 117.383 6.00828 118.133 5.57495C118.883 5.12495 119.716 4.89995 120.633 4.89995V9.42495H119.458C118.391 9.42495 117.591 9.65828 117.058 10.125C116.524 10.575 116.258 11.375 116.258 12.525V19H111.983V5.04995H116.258V7.37495Z" fill="url(#paint1_linear_103_63)"/>
<path d="M130.451 15.375V19H128.276C126.726 19 125.518 18.625 124.651 17.875C123.784 17.1083 123.351 15.8666 123.351 14.15V8.59995H121.651V5.04995H123.351V1.64995H127.626V5.04995H130.426V8.59995H127.626V14.2C127.626 14.6166 127.726 14.9166 127.926 15.1C128.126 15.2833 128.459 15.375 128.926 15.375H130.451Z" fill="url(#paint2_linear_103_63)"/>
<defs>
<linearGradient id="paint0_linear_103_63" x1="124.743" y1="1.44995" x2="117.493" y2="24.7389" gradientUnits="userSpaceOnUse">
<stop stop-color="#B75CFF"/>
<stop offset="1" stop-color="#671AE4"/>
</linearGradient>
<linearGradient id="paint1_linear_103_63" x1="124.743" y1="1.44995" x2="117.493" y2="24.7389" gradientUnits="userSpaceOnUse">
<stop stop-color="#B75CFF"/>
<stop offset="1" stop-color="#671AE4"/>
</linearGradient>
<linearGradient id="paint2_linear_103_63" x1="124.743" y1="1.44995" x2="117.493" y2="24.7389" gradientUnits="userSpaceOnUse">
<stop stop-color="#B75CFF"/>
<stop offset="1" stop-color="#671AE4"/>
</linearGradient>
</defs>
</svg>
